<?xml version="1.0" standalone="no"?>
<!DOCTYPE svg PUBLIC "-//W3C//DTD SVG 20010904//EN"
 "http://www.w3.org/TR/2001/REC-SVG-20010904/DTD/svg10.dtd">
<svg version="1.0" xmlns="http://www.w3.org/2000/svg"
 width="148.000000pt" height="148.000000pt" viewBox="0 0 148.000000 148.000000"
 preserveAspectRatio="xMidYMid meet">
<metadata>
Created by potrace 1.14, written by Peter Selinger 2001-2017
</metadata>
<g transform="translate(0.000000,148.000000) scale(0.100000,-0.100000)"
fill="#000000" stroke="none">
<path d="M270 1469 c-17 -4 -39 -14 -49 -23 -10 -9 -21 -13 -26 -9 -4 5 -5 2
-1 -4 4 -7 2 -13 -4 -13 -6 0 -8 -4 -5 -10 3 -5 2 -10 -3 -10 -6 0 -9 -16 -8
-35 1 -19 -2 -35 -5 -35 -3 0 -3 -18 1 -40 4 -22 4 -40 -1 -40 -4 0 -4 -13 1
-30 5 -16 6 -30 2 -30 -4 0 -5 -56 -2 -125 3 -69 2 -125 -1 -125 -3 0 -4 -11
-2 -24 3 -16 11 -23 21 -21 10 2 21 4 25 4 5 1 5 6 1 13 -4 6 -3 8 4 4 6 -3
16 0 24 7 22 21 122 82 130 79 5 -1 8 5 8 14 0 8 4 13 9 10 5 -3 14 1 21 9 7
8 19 15 27 15 8 0 11 5 8 10 -3 6 1 10 9 10 8 0 22 7 30 16 9 8 16 12 16 7 0
-4 4 -3 8 2 14 20 80 64 86 58 3 -3 8 2 12 11 3 9 10 16 15 16 12 0 73 42 77
53 2 4 8 5 13 1 5 -3 9 0 9 6 0 6 5 8 10 5 6 -3 10 -2 10 4 0 16 62 41 92 37
32 -3 78 -35 78 -53 0 -7 6 -13 13 -13 7 0 8 -3 2 -8 -5 -4 -10 -22 -10 -39 1
-18 -2 -33 -5 -33 -3 0 -18 -13 -35 -28 -33 -30 -85 -65 -85 -57 0 3 -9 -3
-19 -12 -40 -37 -56 -48 -63 -45 -5 1 -8 -3 -8 -9 0 -5 -4 -8 -9 -4 -5 3 -17
-5 -25 -17 -9 -12 -16 -19 -16 -14 0 5 -15 -3 -34 -18 -19 -14 -38 -26 -43
-26 -4 0 -19 -10 -33 -23 -14 -12 -37 -28 -52 -34 -16 -7 -28 -17 -28 -23 0
-5 -4 -9 -9 -8 -5 2 -17 -6 -26 -17 -9 -11 -13 -14 -10 -7 6 11 3 11 -14 0
-12 -7 -21 -16 -21 -19 0 -3 -20 -16 -46 -29 -25 -13 -55 -33 -68 -44 -13 -12
-29 -22 -35 -24 -7 -1 -24 -13 -37 -26 -24 -22 -25 -28 -22 -114 2 -51 1 -92
-2 -92 -3 0 -4 -81 -2 -180 2 -106 7 -180 12 -180 6 0 10 -5 10 -11 0 -5 -6
-7 -12 -3 -7 4 4 -10 26 -31 l38 -38 380 -1 c242 -1 381 3 386 9 4 6 14 11 22
13 32 7 103 48 120 69 9 12 20 20 23 17 3 -3 19 14 36 38 17 23 36 50 43 58 7
8 12 18 11 22 -2 5 2 8 8 8 5 0 7 4 4 10 -3 5 -1 10 4 10 6 0 10 3 9 8 -2 12
14 62 21 62 10 0 12 182 2 215 -5 17 -10 24 -10 18 -1 -7 -8 -13 -16 -13 -8 0
-15 -4 -15 -10 0 -5 -7 -10 -15 -10 -9 0 -18 -7 -21 -15 -4 -8 -9 -13 -14 -10
-4 2 -16 -4 -27 -15 -12 -10 -24 -16 -27 -13 -3 4 -6 2 -6 -4 0 -6 -13 -16
-30 -23 -16 -7 -30 -16 -30 -21 0 -5 -7 -9 -15 -9 -8 0 -15 -4 -15 -10 0 -5
-10 -10 -22 -10 -19 0 -20 -2 -8 -10 12 -8 12 -10 1 -10 -13 0 -110 -57 -121
-71 -10 -12 -55 -33 -65 -30 -5 1 -7 -1 -3 -4 11 -12 -113 -87 -148 -90 -30
-3 -100 23 -89 33 3 3 -1 15 -7 26 -14 23 -15 41 -3 71 9 20 55 69 55 58 0 -4
10 3 23 14 12 11 37 28 55 39 17 10 32 22 32 27 0 4 4 6 9 3 5 -3 14 1 21 9 7
8 19 15 27 15 8 0 12 4 9 8 -2 4 8 13 23 20 15 7 37 21 48 31 12 11 24 17 27
14 3 -4 6 0 6 7 0 7 3 11 6 7 4 -3 12 -1 20 6 33 29 42 35 47 31 3 -3 10 4 17
15 6 12 19 21 29 21 11 0 21 7 25 15 3 8 12 15 21 15 8 0 15 5 15 11 0 5 5 7
10 4 6 -3 10 -1 10 4 0 6 4 11 10 11 13 0 60 41 60 52 0 5 -20 29 -44 54 -29
29 -49 42 -60 38 -9 -3 -16 -10 -16 -16 0 -5 -4 -6 -10 -3 -5 3 -10 1 -10 -6
0 -7 -3 -10 -6 -6 -3 3 -11 1 -18 -4 -56 -47 -71 -57 -78 -53 -4 3 -8 0 -8 -5
0 -6 -5 -11 -11 -11 -6 0 -17 -6 -24 -12 -35 -31 -45 -38 -45 -31 0 4 -4 3 -8
-3 -10 -15 -95 -69 -104 -66 -5 1 -8 -5 -8 -14 0 -8 -4 -12 -10 -9 -5 3 -10 1
-10 -5 0 -6 -4 -8 -10 -5 -5 3 -10 1 -10 -5 0 -6 -4 -8 -10 -5 -5 3 -10 -1
-10 -9 0 -9 -3 -15 -8 -13 -9 2 -115 -64 -120 -75 -2 -5 -10 -8 -17 -8 -7 0
-15 -7 -19 -15 -3 -8 -14 -15 -25 -15 -10 0 -22 -7 -25 -16 -3 -8 -10 -12 -16
-9 -6 3 -13 -1 -16 -9 -3 -9 -13 -16 -20 -16 -8 0 -17 -6 -20 -13 -3 -8 -11
-14 -19 -15 -33 -4 -71 -4 -85 -1 -17 5 -61 51 -55 57 2 3 0 13 -6 23 -6 13
-6 19 1 19 5 0 9 3 9 8 -3 18 3 31 25 55 13 14 27 23 30 20 3 -4 6 -1 6 5 0 7
7 12 15 12 7 0 19 8 24 18 6 9 11 13 11 9 0 -5 7 -2 15 5 34 31 43 36 49 31 3
-4 6 -1 6 5 0 7 5 12 11 12 6 0 17 6 24 13 34 30 43 35 49 30 3 -4 6 0 6 7 0
7 3 11 6 7 3 -3 11 -1 18 4 56 47 71 57 78 53 4 -3 8 0 8 5 0 6 5 11 11 11 6
0 16 6 23 13 23 21 56 42 69 42 7 1 11 7 9 14 -2 8 3 11 13 8 8 -4 15 -2 15 4
0 5 11 14 25 19 14 5 28 16 31 25 3 8 10 13 14 10 4 -2 18 4 30 15 12 11 27
17 31 14 5 -3 9 -1 9 4 0 11 82 67 93 64 4 -1 10 5 13 13 4 8 12 15 20 15 8 0
14 5 14 10 0 6 6 10 14 10 15 0 30 45 21 60 -3 5 -1 11 5 15 6 4 7 12 0 24 -6
12 -5 22 2 29 7 7 8 12 2 12 -5 0 -10 8 -11 18 -3 47 -8 72 -16 72 -5 0 -7 7
-3 15 3 8 -1 18 -9 22 -7 5 -15 13 -16 18 -4 19 -24 45 -34 45 -6 0 -17 9 -25
20 -8 11 -20 20 -28 20 -7 0 -21 7 -29 16 -12 11 -18 12 -23 4 -6 -9 -9 -9
-15 0 -4 6 -13 9 -21 6 -7 -3 -16 -1 -19 4 -3 5 -23 8 -44 8 -22 0 -44 3 -50
6 -6 4 -11 1 -11 -6 0 -8 -3 -9 -8 -3 -8 11 -420 14 -472 4z"/>
</g>
</svg>
